<mxfile host="app.diagrams.net" modified="2023-04-30T11:32:27.599Z" agent="Mozilla/5.0 (Windows NT 10.0; Win64; x64; rv:109.0) Gecko/20100101 Firefox/112.0" etag="__p5T5sDVFKykkODR-Rd" version="21.2.1" type="device">
  <diagram id="C5RBs43oDa-KdzZeNtuy" name="Page-1">
    <mxGraphModel dx="1434" dy="774" grid="1" gridSize="10" guides="1" tooltips="1" connect="1" arrows="1" fold="1" page="1" pageScale="1" pageWidth="827" pageHeight="1169" math="0" shadow="0">
      <root>
        <mxCell id="WIyWlLk6GJQsqaUBKTNV-0" />
        <mxCell id="WIyWlLk6GJQsqaUBKTNV-1" parent="WIyWlLk6GJQsqaUBKTNV-0" />
        <mxCell id="TKj22qkRIN0xCaGGHZL6-0" value="&lt;p style=&quot;margin:0px;margin-top:4px;text-align:center;&quot;&gt;&lt;i&gt;&amp;lt;&amp;lt;Interface&amp;gt;&amp;gt;&lt;/i&gt;&lt;br&gt;&lt;b&gt;IAddParticipantsPage&lt;/b&gt;&lt;br&gt;&lt;/p&gt;&lt;hr size=&quot;1&quot;&gt;&lt;br&gt;&lt;hr size=&quot;1&quot;&gt;&lt;p style=&quot;margin:0px;margin-left:4px;&quot;&gt;NewParticipantsPage():void&lt;br&gt;&lt;/p&gt;" style="verticalAlign=top;align=left;overflow=fill;fontSize=12;fontFamily=Helvetica;html=1;whiteSpace=wrap;" vertex="1" parent="WIyWlLk6GJQsqaUBKTNV-1">
          <mxGeometry x="105" y="240" width="190" height="100" as="geometry" />
        </mxCell>
        <mxCell id="TKj22qkRIN0xCaGGHZL6-5" value="MainWindow" style="swimlane;fontStyle=0;childLayout=stackLayout;horizontal=1;startSize=26;fillColor=none;horizontalStack=0;resizeParent=1;resizeParentMax=0;resizeLast=0;collapsible=1;marginBottom=0;whiteSpace=wrap;html=1;" vertex="1" parent="WIyWlLk6GJQsqaUBKTNV-1">
          <mxGeometry x="50" y="80" width="300" height="78" as="geometry" />
        </mxCell>
        <mxCell id="TKj22qkRIN0xCaGGHZL6-6" value="Button_Click(object sender, RoutedEventArgs e):void" style="text;strokeColor=none;fillColor=none;align=left;verticalAlign=top;spacingLeft=4;spacingRight=4;overflow=hidden;rotatable=0;points=[[0,0.5],[1,0.5]];portConstraint=eastwest;whiteSpace=wrap;html=1;" vertex="1" parent="TKj22qkRIN0xCaGGHZL6-5">
          <mxGeometry y="26" width="300" height="26" as="geometry" />
        </mxCell>
        <mxCell id="TKj22qkRIN0xCaGGHZL6-7" value="MainWindow()" style="text;strokeColor=none;fillColor=none;align=left;verticalAlign=top;spacingLeft=4;spacingRight=4;overflow=hidden;rotatable=0;points=[[0,0.5],[1,0.5]];portConstraint=eastwest;whiteSpace=wrap;html=1;" vertex="1" parent="TKj22qkRIN0xCaGGHZL6-5">
          <mxGeometry y="52" width="300" height="26" as="geometry" />
        </mxCell>
        <mxCell id="TKj22qkRIN0xCaGGHZL6-9" value="Use" style="endArrow=open;endSize=12;dashed=1;html=1;rounded=0;entryX=0.5;entryY=0;entryDx=0;entryDy=0;" edge="1" parent="WIyWlLk6GJQsqaUBKTNV-1" target="TKj22qkRIN0xCaGGHZL6-0">
          <mxGeometry width="160" relative="1" as="geometry">
            <mxPoint x="200" y="160" as="sourcePoint" />
            <mxPoint x="310" y="210" as="targetPoint" />
          </mxGeometry>
        </mxCell>
        <mxCell id="TKj22qkRIN0xCaGGHZL6-10" value="" style="endArrow=block;dashed=1;endFill=0;endSize=12;html=1;rounded=0;entryX=0.5;entryY=1;entryDx=0;entryDy=0;exitX=0.5;exitY=0;exitDx=0;exitDy=0;" edge="1" parent="WIyWlLk6GJQsqaUBKTNV-1" source="TKj22qkRIN0xCaGGHZL6-12" target="TKj22qkRIN0xCaGGHZL6-0">
          <mxGeometry width="160" relative="1" as="geometry">
            <mxPoint x="200" y="480" as="sourcePoint" />
            <mxPoint x="200" y="460" as="targetPoint" />
            <Array as="points" />
          </mxGeometry>
        </mxCell>
        <mxCell id="TKj22qkRIN0xCaGGHZL6-11" value="Implement" style="edgeLabel;html=1;align=center;verticalAlign=middle;resizable=0;points=[];" vertex="1" connectable="0" parent="TKj22qkRIN0xCaGGHZL6-10">
          <mxGeometry x="0.35" y="-1" relative="1" as="geometry">
            <mxPoint x="-1" y="17" as="offset" />
          </mxGeometry>
        </mxCell>
        <mxCell id="TKj22qkRIN0xCaGGHZL6-12" value="AddParticipantsPage" style="swimlane;fontStyle=1;align=center;verticalAlign=top;childLayout=stackLayout;horizontal=1;startSize=26;horizontalStack=0;resizeParent=1;resizeParentMax=0;resizeLast=0;collapsible=1;marginBottom=0;whiteSpace=wrap;html=1;" vertex="1" parent="WIyWlLk6GJQsqaUBKTNV-1">
          <mxGeometry x="15" y="445" width="370" height="224" as="geometry" />
        </mxCell>
        <mxCell id="TKj22qkRIN0xCaGGHZL6-13" value="ProjectName:string" style="text;strokeColor=none;fillColor=none;align=left;verticalAlign=top;spacingLeft=4;spacingRight=4;overflow=hidden;rotatable=0;points=[[0,0.5],[1,0.5]];portConstraint=eastwest;whiteSpace=wrap;html=1;" vertex="1" parent="TKj22qkRIN0xCaGGHZL6-12">
          <mxGeometry y="26" width="370" height="26" as="geometry" />
        </mxCell>
        <mxCell id="TKj22qkRIN0xCaGGHZL6-34" value="ScollViewItems:ObservableCollection&amp;lt;string&amp;gt;" style="text;strokeColor=none;fillColor=none;align=left;verticalAlign=top;spacingLeft=4;spacingRight=4;overflow=hidden;rotatable=0;points=[[0,0.5],[1,0.5]];portConstraint=eastwest;whiteSpace=wrap;html=1;" vertex="1" parent="TKj22qkRIN0xCaGGHZL6-12">
          <mxGeometry y="52" width="370" height="26" as="geometry" />
        </mxCell>
        <mxCell id="TKj22qkRIN0xCaGGHZL6-14" value="" style="line;strokeWidth=1;fillColor=none;align=left;verticalAlign=middle;spacingTop=-1;spacingLeft=3;spacingRight=3;rotatable=0;labelPosition=right;points=[];portConstraint=eastwest;strokeColor=inherit;" vertex="1" parent="TKj22qkRIN0xCaGGHZL6-12">
          <mxGeometry y="78" width="370" height="8" as="geometry" />
        </mxCell>
        <mxCell id="TKj22qkRIN0xCaGGHZL6-35" value="&lt;div&gt;NewParticipantsPage():void&lt;/div&gt;" style="text;strokeColor=none;fillColor=none;align=left;verticalAlign=top;spacingLeft=4;spacingRight=4;overflow=hidden;rotatable=0;points=[[0,0.5],[1,0.5]];portConstraint=eastwest;whiteSpace=wrap;html=1;" vertex="1" parent="TKj22qkRIN0xCaGGHZL6-12">
          <mxGeometry y="86" width="370" height="26" as="geometry" />
        </mxCell>
        <mxCell id="TKj22qkRIN0xCaGGHZL6-15" value="AddPersonButton(object sender, RoutedEventArgs e):void" style="text;strokeColor=none;fillColor=none;align=left;verticalAlign=top;spacingLeft=4;spacingRight=4;overflow=hidden;rotatable=0;points=[[0,0.5],[1,0.5]];portConstraint=eastwest;whiteSpace=wrap;html=1;" vertex="1" parent="TKj22qkRIN0xCaGGHZL6-12">
          <mxGeometry y="112" width="370" height="28" as="geometry" />
        </mxCell>
        <mxCell id="TKj22qkRIN0xCaGGHZL6-36" value="RemovePersonButton(object sender, RoutedEventArgs e):void" style="text;strokeColor=none;fillColor=none;align=left;verticalAlign=top;spacingLeft=4;spacingRight=4;overflow=hidden;rotatable=0;points=[[0,0.5],[1,0.5]];portConstraint=eastwest;whiteSpace=wrap;html=1;" vertex="1" parent="TKj22qkRIN0xCaGGHZL6-12">
          <mxGeometry y="140" width="370" height="28" as="geometry" />
        </mxCell>
        <mxCell id="TKj22qkRIN0xCaGGHZL6-37" value="NextPageButton(object sender, RoutedEventArgs e):void" style="text;strokeColor=none;fillColor=none;align=left;verticalAlign=top;spacingLeft=4;spacingRight=4;overflow=hidden;rotatable=0;points=[[0,0.5],[1,0.5]];portConstraint=eastwest;whiteSpace=wrap;html=1;" vertex="1" parent="TKj22qkRIN0xCaGGHZL6-12">
          <mxGeometry y="168" width="370" height="28" as="geometry" />
        </mxCell>
        <mxCell id="TKj22qkRIN0xCaGGHZL6-38" value="Input_EnterKeyPressed(object sender, RoutedEventArgs e):void" style="text;strokeColor=none;fillColor=none;align=left;verticalAlign=top;spacingLeft=4;spacingRight=4;overflow=hidden;rotatable=0;points=[[0,0.5],[1,0.5]];portConstraint=eastwest;whiteSpace=wrap;html=1;" vertex="1" parent="TKj22qkRIN0xCaGGHZL6-12">
          <mxGeometry y="196" width="370" height="28" as="geometry" />
        </mxCell>
        <mxCell id="TKj22qkRIN0xCaGGHZL6-16" value="Global" style="swimlane;fontStyle=1;align=center;verticalAlign=top;childLayout=stackLayout;horizontal=1;startSize=26;horizontalStack=0;resizeParent=1;resizeParentMax=0;resizeLast=0;collapsible=1;marginBottom=0;whiteSpace=wrap;html=1;" vertex="1" parent="WIyWlLk6GJQsqaUBKTNV-1">
          <mxGeometry x="480" y="40" width="180" height="144" as="geometry" />
        </mxCell>
        <mxCell id="TKj22qkRIN0xCaGGHZL6-17" value="&lt;div&gt;ProjectName:string&lt;/div&gt;" style="text;strokeColor=none;fillColor=none;align=left;verticalAlign=top;spacingLeft=4;spacingRight=4;overflow=hidden;rotatable=0;points=[[0,0.5],[1,0.5]];portConstraint=eastwest;whiteSpace=wrap;html=1;" vertex="1" parent="TKj22qkRIN0xCaGGHZL6-16">
          <mxGeometry y="26" width="180" height="24" as="geometry" />
        </mxCell>
        <mxCell id="TKj22qkRIN0xCaGGHZL6-30" value="&lt;div&gt;ScrumMasterName:string&lt;/div&gt;&lt;div&gt;&lt;br&gt;&lt;/div&gt;&lt;div&gt;&lt;div&gt;Tasks:List&amp;lt;Task&amp;gt;&lt;/div&gt;Window:Window&lt;/div&gt;" style="text;strokeColor=none;fillColor=none;align=left;verticalAlign=top;spacingLeft=4;spacingRight=4;overflow=hidden;rotatable=0;points=[[0,0.5],[1,0.5]];portConstraint=eastwest;whiteSpace=wrap;html=1;" vertex="1" parent="TKj22qkRIN0xCaGGHZL6-16">
          <mxGeometry y="50" width="180" height="20" as="geometry" />
        </mxCell>
        <mxCell id="TKj22qkRIN0xCaGGHZL6-31" value="Tasks:List&amp;lt;Task&amp;gt;&lt;div&gt;&lt;br&gt;&lt;/div&gt;" style="text;strokeColor=none;fillColor=none;align=left;verticalAlign=top;spacingLeft=4;spacingRight=4;overflow=hidden;rotatable=0;points=[[0,0.5],[1,0.5]];portConstraint=eastwest;whiteSpace=wrap;html=1;" vertex="1" parent="TKj22qkRIN0xCaGGHZL6-16">
          <mxGeometry y="70" width="180" height="20" as="geometry" />
        </mxCell>
        <mxCell id="TKj22qkRIN0xCaGGHZL6-32" value="Window:Window" style="text;strokeColor=none;fillColor=none;align=left;verticalAlign=top;spacingLeft=4;spacingRight=4;overflow=hidden;rotatable=0;points=[[0,0.5],[1,0.5]];portConstraint=eastwest;whiteSpace=wrap;html=1;" vertex="1" parent="TKj22qkRIN0xCaGGHZL6-16">
          <mxGeometry y="90" width="180" height="20" as="geometry" />
        </mxCell>
        <mxCell id="TKj22qkRIN0xCaGGHZL6-18" value="" style="line;strokeWidth=1;fillColor=none;align=left;verticalAlign=middle;spacingTop=-1;spacingLeft=3;spacingRight=3;rotatable=0;labelPosition=right;points=[];portConstraint=eastwest;strokeColor=inherit;" vertex="1" parent="TKj22qkRIN0xCaGGHZL6-16">
          <mxGeometry y="110" width="180" height="8" as="geometry" />
        </mxCell>
        <mxCell id="TKj22qkRIN0xCaGGHZL6-19" value="&lt;div&gt;ValidateText(string text):bool&lt;/div&gt;" style="text;strokeColor=none;fillColor=none;align=left;verticalAlign=top;spacingLeft=4;spacingRight=4;overflow=hidden;rotatable=0;points=[[0,0.5],[1,0.5]];portConstraint=eastwest;whiteSpace=wrap;html=1;" vertex="1" parent="TKj22qkRIN0xCaGGHZL6-16">
          <mxGeometry y="118" width="180" height="26" as="geometry" />
        </mxCell>
        <mxCell id="TKj22qkRIN0xCaGGHZL6-20" value="Use" style="endArrow=open;endSize=12;dashed=1;html=1;rounded=0;entryX=0;entryY=0.5;entryDx=0;entryDy=0;exitX=1;exitY=0.5;exitDx=0;exitDy=0;" edge="1" parent="WIyWlLk6GJQsqaUBKTNV-1" source="TKj22qkRIN0xCaGGHZL6-6" target="TKj22qkRIN0xCaGGHZL6-31">
          <mxGeometry width="160" relative="1" as="geometry">
            <mxPoint x="210" y="170" as="sourcePoint" />
            <mxPoint x="210" y="250" as="targetPoint" />
          </mxGeometry>
        </mxCell>
        <mxCell id="TKj22qkRIN0xCaGGHZL6-25" value="Task" style="swimlane;fontStyle=0;childLayout=stackLayout;horizontal=1;startSize=26;fillColor=none;horizontalStack=0;resizeParent=1;resizeParentMax=0;resizeLast=0;collapsible=1;marginBottom=0;whiteSpace=wrap;html=1;" vertex="1" parent="WIyWlLk6GJQsqaUBKTNV-1">
          <mxGeometry x="500" y="260" width="140" height="104" as="geometry" />
        </mxCell>
        <mxCell id="TKj22qkRIN0xCaGGHZL6-26" value="Name:string" style="text;strokeColor=none;fillColor=none;align=left;verticalAlign=top;spacingLeft=4;spacingRight=4;overflow=hidden;rotatable=0;points=[[0,0.5],[1,0.5]];portConstraint=eastwest;whiteSpace=wrap;html=1;" vertex="1" parent="TKj22qkRIN0xCaGGHZL6-25">
          <mxGeometry y="26" width="140" height="26" as="geometry" />
        </mxCell>
        <mxCell id="TKj22qkRIN0xCaGGHZL6-27" value="Description:string" style="text;strokeColor=none;fillColor=none;align=left;verticalAlign=top;spacingLeft=4;spacingRight=4;overflow=hidden;rotatable=0;points=[[0,0.5],[1,0.5]];portConstraint=eastwest;whiteSpace=wrap;html=1;" vertex="1" parent="TKj22qkRIN0xCaGGHZL6-25">
          <mxGeometry y="52" width="140" height="26" as="geometry" />
        </mxCell>
        <mxCell id="TKj22qkRIN0xCaGGHZL6-28" value="Rating:int" style="text;strokeColor=none;fillColor=none;align=left;verticalAlign=top;spacingLeft=4;spacingRight=4;overflow=hidden;rotatable=0;points=[[0,0.5],[1,0.5]];portConstraint=eastwest;whiteSpace=wrap;html=1;" vertex="1" parent="TKj22qkRIN0xCaGGHZL6-25">
          <mxGeometry y="78" width="140" height="26" as="geometry" />
        </mxCell>
        <mxCell id="TKj22qkRIN0xCaGGHZL6-29" value="Use" style="endArrow=open;endSize=12;dashed=1;html=1;rounded=0;entryX=0.5;entryY=0;entryDx=0;entryDy=0;exitX=0.5;exitY=1;exitDx=0;exitDy=0;" edge="1" parent="WIyWlLk6GJQsqaUBKTNV-1" source="TKj22qkRIN0xCaGGHZL6-16" target="TKj22qkRIN0xCaGGHZL6-25">
          <mxGeometry width="160" relative="1" as="geometry">
            <mxPoint x="360" y="129" as="sourcePoint" />
            <mxPoint x="490" y="128" as="targetPoint" />
          </mxGeometry>
        </mxCell>
        <mxCell id="TKj22qkRIN0xCaGGHZL6-39" value="&lt;p style=&quot;margin:0px;margin-top:4px;text-align:center;&quot;&gt;&lt;i&gt;&amp;lt;&amp;lt;Interface&amp;gt;&amp;gt;&lt;/i&gt;&lt;br&gt;&lt;b&gt;INewTaskPage&lt;/b&gt;&lt;br&gt;&lt;/p&gt;&lt;hr size=&quot;1&quot;&gt;&lt;br&gt;&lt;hr size=&quot;1&quot;&gt;&lt;p style=&quot;margin:0px;margin-left:4px;&quot;&gt;NewTaskPage(ObservableCollection&amp;lt;string&amp;gt; children):void&lt;br&gt;&lt;/p&gt;" style="verticalAlign=top;align=left;overflow=fill;fontSize=12;fontFamily=Helvetica;html=1;whiteSpace=wrap;" vertex="1" parent="WIyWlLk6GJQsqaUBKTNV-1">
          <mxGeometry x="460" y="507" width="340" height="100" as="geometry" />
        </mxCell>
        <mxCell id="TKj22qkRIN0xCaGGHZL6-40" value="Use" style="endArrow=open;endSize=12;dashed=1;html=1;rounded=0;entryX=0;entryY=0.5;entryDx=0;entryDy=0;exitX=1;exitY=0.5;exitDx=0;exitDy=0;" edge="1" parent="WIyWlLk6GJQsqaUBKTNV-1" source="TKj22qkRIN0xCaGGHZL6-12" target="TKj22qkRIN0xCaGGHZL6-39">
          <mxGeometry width="160" relative="1" as="geometry">
            <mxPoint x="210" y="170" as="sourcePoint" />
            <mxPoint x="210" y="250" as="targetPoint" />
          </mxGeometry>
        </mxCell>
        <mxCell id="TKj22qkRIN0xCaGGHZL6-41" value="NewTaskPage" style="swimlane;fontStyle=1;align=center;verticalAlign=top;childLayout=stackLayout;horizontal=1;startSize=26;horizontalStack=0;resizeParent=1;resizeParentMax=0;resizeLast=0;collapsible=1;marginBottom=0;whiteSpace=wrap;html=1;" vertex="1" parent="WIyWlLk6GJQsqaUBKTNV-1">
          <mxGeometry x="445" y="700" width="370" height="114" as="geometry" />
        </mxCell>
        <mxCell id="TKj22qkRIN0xCaGGHZL6-42" value="employees:ObservableCollection&amp;lt;string&amp;gt;" style="text;strokeColor=none;fillColor=none;align=left;verticalAlign=top;spacingLeft=4;spacingRight=4;overflow=hidden;rotatable=0;points=[[0,0.5],[1,0.5]];portConstraint=eastwest;whiteSpace=wrap;html=1;" vertex="1" parent="TKj22qkRIN0xCaGGHZL6-41">
          <mxGeometry y="26" width="370" height="26" as="geometry" />
        </mxCell>
        <mxCell id="TKj22qkRIN0xCaGGHZL6-44" value="" style="line;strokeWidth=1;fillColor=none;align=left;verticalAlign=middle;spacingTop=-1;spacingLeft=3;spacingRight=3;rotatable=0;labelPosition=right;points=[];portConstraint=eastwest;strokeColor=inherit;" vertex="1" parent="TKj22qkRIN0xCaGGHZL6-41">
          <mxGeometry y="52" width="370" height="8" as="geometry" />
        </mxCell>
        <mxCell id="TKj22qkRIN0xCaGGHZL6-45" value="NewTaskPage(ObservableCollection&amp;lt;string&amp;gt; children):void" style="text;strokeColor=none;fillColor=none;align=left;verticalAlign=top;spacingLeft=4;spacingRight=4;overflow=hidden;rotatable=0;points=[[0,0.5],[1,0.5]];portConstraint=eastwest;whiteSpace=wrap;html=1;" vertex="1" parent="TKj22qkRIN0xCaGGHZL6-41">
          <mxGeometry y="60" width="370" height="26" as="geometry" />
        </mxCell>
        <mxCell id="TKj22qkRIN0xCaGGHZL6-48" value="NextPageButton(object sender, RoutedEventArgs e):void" style="text;strokeColor=none;fillColor=none;align=left;verticalAlign=top;spacingLeft=4;spacingRight=4;overflow=hidden;rotatable=0;points=[[0,0.5],[1,0.5]];portConstraint=eastwest;whiteSpace=wrap;html=1;" vertex="1" parent="TKj22qkRIN0xCaGGHZL6-41">
          <mxGeometry y="86" width="370" height="28" as="geometry" />
        </mxCell>
        <mxCell id="TKj22qkRIN0xCaGGHZL6-50" value="" style="endArrow=block;dashed=1;endFill=0;endSize=12;html=1;rounded=0;entryX=0.5;entryY=1;entryDx=0;entryDy=0;exitX=0.5;exitY=0;exitDx=0;exitDy=0;" edge="1" parent="WIyWlLk6GJQsqaUBKTNV-1" source="TKj22qkRIN0xCaGGHZL6-41" target="TKj22qkRIN0xCaGGHZL6-39">
          <mxGeometry width="160" relative="1" as="geometry">
            <mxPoint x="210" y="455" as="sourcePoint" />
            <mxPoint x="210" y="390" as="targetPoint" />
            <Array as="points" />
          </mxGeometry>
        </mxCell>
        <mxCell id="TKj22qkRIN0xCaGGHZL6-51" value="Implement" style="edgeLabel;html=1;align=center;verticalAlign=middle;resizable=0;points=[];" vertex="1" connectable="0" parent="TKj22qkRIN0xCaGGHZL6-50">
          <mxGeometry x="0.35" y="-1" relative="1" as="geometry">
            <mxPoint x="-1" y="17" as="offset" />
          </mxGeometry>
        </mxCell>
        <mxCell id="TKj22qkRIN0xCaGGHZL6-53" value="&lt;p style=&quot;margin:0px;margin-top:4px;text-align:center;&quot;&gt;&lt;i&gt;&amp;lt;&amp;lt;Interface&amp;gt;&amp;gt;&lt;/i&gt;&lt;br&gt;&lt;b&gt;IPlanningPokerPage&lt;/b&gt;&lt;br&gt;&lt;/p&gt;&lt;hr size=&quot;1&quot;&gt;&lt;br&gt;&lt;hr size=&quot;1&quot;&gt;&lt;p style=&quot;margin:0px;margin-left:4px;&quot;&gt;NewPlanningPokerPage(string taskName, string taskDescription, ObservableCollection&amp;lt;string&amp;gt; employeeList):void&lt;br&gt;&lt;/p&gt;" style="verticalAlign=top;align=left;overflow=fill;fontSize=12;fontFamily=Helvetica;html=1;whiteSpace=wrap;" vertex="1" parent="WIyWlLk6GJQsqaUBKTNV-1">
          <mxGeometry x="60" y="860" width="656" height="100" as="geometry" />
        </mxCell>
        <mxCell id="TKj22qkRIN0xCaGGHZL6-52" value="Use" style="endArrow=open;endSize=12;dashed=1;html=1;rounded=0;exitX=0;exitY=0.5;exitDx=0;exitDy=0;entryX=0.5;entryY=0;entryDx=0;entryDy=0;" edge="1" parent="WIyWlLk6GJQsqaUBKTNV-1" source="TKj22qkRIN0xCaGGHZL6-45" target="TKj22qkRIN0xCaGGHZL6-53">
          <mxGeometry width="160" relative="1" as="geometry">
            <mxPoint x="395" y="567" as="sourcePoint" />
            <mxPoint x="340" y="710" as="targetPoint" />
            <Array as="points">
              <mxPoint x="388" y="773" />
            </Array>
          </mxGeometry>
        </mxCell>
        <mxCell id="TKj22qkRIN0xCaGGHZL6-55" value="PlanningPokerPage" style="swimlane;fontStyle=1;align=center;verticalAlign=top;childLayout=stackLayout;horizontal=1;startSize=26;horizontalStack=0;resizeParent=1;resizeParentMax=0;resizeLast=0;collapsible=1;marginBottom=0;whiteSpace=wrap;html=1;" vertex="1" parent="WIyWlLk6GJQsqaUBKTNV-1">
          <mxGeometry x="53" y="1063" width="670" height="328" as="geometry" />
        </mxCell>
        <mxCell id="TKj22qkRIN0xCaGGHZL6-56" value="taskName:string" style="text;strokeColor=none;fillColor=none;align=left;verticalAlign=top;spacingLeft=4;spacingRight=4;overflow=hidden;rotatable=0;points=[[0,0.5],[1,0.5]];portConstraint=eastwest;whiteSpace=wrap;html=1;" vertex="1" parent="TKj22qkRIN0xCaGGHZL6-55">
          <mxGeometry y="26" width="670" height="26" as="geometry" />
        </mxCell>
        <mxCell id="TKj22qkRIN0xCaGGHZL6-63" value="taskDescription:string" style="text;strokeColor=none;fillColor=none;align=left;verticalAlign=top;spacingLeft=4;spacingRight=4;overflow=hidden;rotatable=0;points=[[0,0.5],[1,0.5]];portConstraint=eastwest;whiteSpace=wrap;html=1;" vertex="1" parent="TKj22qkRIN0xCaGGHZL6-55">
          <mxGeometry y="52" width="670" height="26" as="geometry" />
        </mxCell>
        <mxCell id="TKj22qkRIN0xCaGGHZL6-64" value="taskRating:int" style="text;strokeColor=none;fillColor=none;align=left;verticalAlign=top;spacingLeft=4;spacingRight=4;overflow=hidden;rotatable=0;points=[[0,0.5],[1,0.5]];portConstraint=eastwest;whiteSpace=wrap;html=1;" vertex="1" parent="TKj22qkRIN0xCaGGHZL6-55">
          <mxGeometry y="78" width="670" height="26" as="geometry" />
        </mxCell>
        <mxCell id="TKj22qkRIN0xCaGGHZL6-65" value="employeeList:ObservableCollection&amp;lt;string&amp;gt;" style="text;strokeColor=none;fillColor=none;align=left;verticalAlign=top;spacingLeft=4;spacingRight=4;overflow=hidden;rotatable=0;points=[[0,0.5],[1,0.5]];portConstraint=eastwest;whiteSpace=wrap;html=1;" vertex="1" parent="TKj22qkRIN0xCaGGHZL6-55">
          <mxGeometry y="104" width="670" height="26" as="geometry" />
        </mxCell>
        <mxCell id="TKj22qkRIN0xCaGGHZL6-66" value="fibonnaciList:ObservableCollection&amp;lt;int&amp;gt;" style="text;strokeColor=none;fillColor=none;align=left;verticalAlign=top;spacingLeft=4;spacingRight=4;overflow=hidden;rotatable=0;points=[[0,0.5],[1,0.5]];portConstraint=eastwest;whiteSpace=wrap;html=1;" vertex="1" parent="TKj22qkRIN0xCaGGHZL6-55">
          <mxGeometry y="130" width="670" height="26" as="geometry" />
        </mxCell>
        <mxCell id="TKj22qkRIN0xCaGGHZL6-67" value="dockPanels:List&amp;lt;DockPanel&amp;gt;" style="text;strokeColor=none;fillColor=none;align=left;verticalAlign=top;spacingLeft=4;spacingRight=4;overflow=hidden;rotatable=0;points=[[0,0.5],[1,0.5]];portConstraint=eastwest;whiteSpace=wrap;html=1;" vertex="1" parent="TKj22qkRIN0xCaGGHZL6-55">
          <mxGeometry y="156" width="670" height="26" as="geometry" />
        </mxCell>
        <mxCell id="TKj22qkRIN0xCaGGHZL6-57" value="" style="line;strokeWidth=1;fillColor=none;align=left;verticalAlign=middle;spacingTop=-1;spacingLeft=3;spacingRight=3;rotatable=0;labelPosition=right;points=[];portConstraint=eastwest;strokeColor=inherit;" vertex="1" parent="TKj22qkRIN0xCaGGHZL6-55">
          <mxGeometry y="182" width="670" height="8" as="geometry" />
        </mxCell>
        <mxCell id="TKj22qkRIN0xCaGGHZL6-58" value="NewPlanningPokerPage(string taskName, string taskDescription, ObservableCollection&amp;lt;string&amp;gt; employeeList):void" style="text;strokeColor=none;fillColor=none;align=left;verticalAlign=top;spacingLeft=4;spacingRight=4;overflow=hidden;rotatable=0;points=[[0,0.5],[1,0.5]];portConstraint=eastwest;whiteSpace=wrap;html=1;" vertex="1" parent="TKj22qkRIN0xCaGGHZL6-55">
          <mxGeometry y="190" width="670" height="26" as="geometry" />
        </mxCell>
        <mxCell id="TKj22qkRIN0xCaGGHZL6-59" value="ClearSelection(object sender, RoutedEventArgs e):void" style="text;strokeColor=none;fillColor=none;align=left;verticalAlign=top;spacingLeft=4;spacingRight=4;overflow=hidden;rotatable=0;points=[[0,0.5],[1,0.5]];portConstraint=eastwest;whiteSpace=wrap;html=1;" vertex="1" parent="TKj22qkRIN0xCaGGHZL6-55">
          <mxGeometry y="216" width="670" height="28" as="geometry" />
        </mxCell>
        <mxCell id="TKj22qkRIN0xCaGGHZL6-68" value="Fibonacci_SelectionChanged(object sender, SelectionChangedEventArgs e):void" style="text;strokeColor=none;fillColor=none;align=left;verticalAlign=top;spacingLeft=4;spacingRight=4;overflow=hidden;rotatable=0;points=[[0,0.5],[1,0.5]];portConstraint=eastwest;whiteSpace=wrap;html=1;" vertex="1" parent="TKj22qkRIN0xCaGGHZL6-55">
          <mxGeometry y="244" width="670" height="28" as="geometry" />
        </mxCell>
        <mxCell id="TKj22qkRIN0xCaGGHZL6-69" value="NewTask(object sender, RoutedEventArgs e):void" style="text;strokeColor=none;fillColor=none;align=left;verticalAlign=top;spacingLeft=4;spacingRight=4;overflow=hidden;rotatable=0;points=[[0,0.5],[1,0.5]];portConstraint=eastwest;whiteSpace=wrap;html=1;" vertex="1" parent="TKj22qkRIN0xCaGGHZL6-55">
          <mxGeometry y="272" width="670" height="28" as="geometry" />
        </mxCell>
        <mxCell id="TKj22qkRIN0xCaGGHZL6-70" value="LoadNextPage(object sender, RoutedEventArgs e):void" style="text;strokeColor=none;fillColor=none;align=left;verticalAlign=top;spacingLeft=4;spacingRight=4;overflow=hidden;rotatable=0;points=[[0,0.5],[1,0.5]];portConstraint=eastwest;whiteSpace=wrap;html=1;" vertex="1" parent="TKj22qkRIN0xCaGGHZL6-55">
          <mxGeometry y="300" width="670" height="28" as="geometry" />
        </mxCell>
        <mxCell id="TKj22qkRIN0xCaGGHZL6-60" value="" style="endArrow=block;dashed=1;endFill=0;endSize=12;html=1;rounded=0;entryX=0.5;entryY=1;entryDx=0;entryDy=0;exitX=0.5;exitY=0;exitDx=0;exitDy=0;" edge="1" parent="WIyWlLk6GJQsqaUBKTNV-1" source="TKj22qkRIN0xCaGGHZL6-55" target="TKj22qkRIN0xCaGGHZL6-53">
          <mxGeometry width="160" relative="1" as="geometry">
            <mxPoint x="-32" y="818" as="sourcePoint" />
            <mxPoint x="388" y="970" as="targetPoint" />
            <Array as="points" />
          </mxGeometry>
        </mxCell>
        <mxCell id="TKj22qkRIN0xCaGGHZL6-61" value="Implement" style="edgeLabel;html=1;align=center;verticalAlign=middle;resizable=0;points=[];" vertex="1" connectable="0" parent="TKj22qkRIN0xCaGGHZL6-60">
          <mxGeometry x="0.35" y="-1" relative="1" as="geometry">
            <mxPoint x="-1" y="17" as="offset" />
          </mxGeometry>
        </mxCell>
        <mxCell id="TKj22qkRIN0xCaGGHZL6-71" value="Use" style="endArrow=open;endSize=12;dashed=1;html=1;rounded=0;entryX=1;entryY=0.5;entryDx=0;entryDy=0;exitX=1;exitY=0.5;exitDx=0;exitDy=0;" edge="1" parent="WIyWlLk6GJQsqaUBKTNV-1" source="TKj22qkRIN0xCaGGHZL6-67" target="TKj22qkRIN0xCaGGHZL6-39">
          <mxGeometry width="160" relative="1" as="geometry">
            <mxPoint x="50" y="1260" as="sourcePoint" />
            <mxPoint y="780" as="targetPoint" />
            <Array as="points">
              <mxPoint x="910" y="1232" />
              <mxPoint x="910" y="557" />
            </Array>
          </mxGeometry>
        </mxCell>
        <mxCell id="TKj22qkRIN0xCaGGHZL6-72" value="&lt;p style=&quot;margin:0px;margin-top:4px;text-align:center;&quot;&gt;&lt;i&gt;&amp;lt;&amp;lt;Interface&amp;gt;&amp;gt;&lt;/i&gt;&lt;br&gt;&lt;b&gt;IFileWritePage&lt;/b&gt;&lt;br&gt;&lt;/p&gt;&lt;hr size=&quot;1&quot;&gt;&lt;br&gt;&lt;hr size=&quot;1&quot;&gt;&lt;p style=&quot;margin:0px;margin-left:4px;&quot;&gt;NewFileWritePage(List&amp;lt;string&amp;gt; employees):void&lt;br&gt;&lt;/p&gt;" style="verticalAlign=top;align=left;overflow=fill;fontSize=12;fontFamily=Helvetica;html=1;whiteSpace=wrap;" vertex="1" parent="WIyWlLk6GJQsqaUBKTNV-1">
          <mxGeometry x="218" y="1480" width="340" height="100" as="geometry" />
        </mxCell>
        <mxCell id="TKj22qkRIN0xCaGGHZL6-74" value="Use" style="endArrow=open;endSize=12;dashed=1;html=1;rounded=0;exitX=0.5;exitY=1;exitDx=0;exitDy=0;entryX=0.5;entryY=0;entryDx=0;entryDy=0;" edge="1" parent="WIyWlLk6GJQsqaUBKTNV-1" source="TKj22qkRIN0xCaGGHZL6-55" target="TKj22qkRIN0xCaGGHZL6-72">
          <mxGeometry width="160" relative="1" as="geometry">
            <mxPoint x="437" y="1600" as="sourcePoint" />
            <mxPoint x="380" y="1687" as="targetPoint" />
            <Array as="points" />
          </mxGeometry>
        </mxCell>
        <mxCell id="TKj22qkRIN0xCaGGHZL6-75" value="" style="endArrow=block;dashed=1;endFill=0;endSize=12;html=1;rounded=0;entryX=1;entryY=0.5;entryDx=0;entryDy=0;" edge="1" parent="WIyWlLk6GJQsqaUBKTNV-1" source="TKj22qkRIN0xCaGGHZL6-77" target="TKj22qkRIN0xCaGGHZL6-72">
          <mxGeometry width="160" relative="1" as="geometry">
            <mxPoint x="650" y="1529.5" as="sourcePoint" />
            <mxPoint x="558" y="1529.5" as="targetPoint" />
            <Array as="points" />
          </mxGeometry>
        </mxCell>
        <mxCell id="TKj22qkRIN0xCaGGHZL6-76" value="Implement" style="edgeLabel;html=1;align=center;verticalAlign=middle;resizable=0;points=[];" vertex="1" connectable="0" parent="TKj22qkRIN0xCaGGHZL6-75">
          <mxGeometry x="0.35" y="-1" relative="1" as="geometry">
            <mxPoint x="26" y="1" as="offset" />
          </mxGeometry>
        </mxCell>
        <mxCell id="TKj22qkRIN0xCaGGHZL6-77" value="FileWritePage" style="swimlane;fontStyle=1;align=center;verticalAlign=top;childLayout=stackLayout;horizontal=1;startSize=26;horizontalStack=0;resizeParent=1;resizeParentMax=0;resizeLast=0;collapsible=1;marginBottom=0;whiteSpace=wrap;html=1;" vertex="1" parent="WIyWlLk6GJQsqaUBKTNV-1">
          <mxGeometry x="700" y="1450" width="300" height="164" as="geometry" />
        </mxCell>
        <mxCell id="TKj22qkRIN0xCaGGHZL6-78" value="employees:List&amp;lt;string&amp;gt;" style="text;strokeColor=none;fillColor=none;align=left;verticalAlign=top;spacingLeft=4;spacingRight=4;overflow=hidden;rotatable=0;points=[[0,0.5],[1,0.5]];portConstraint=eastwest;whiteSpace=wrap;html=1;" vertex="1" parent="TKj22qkRIN0xCaGGHZL6-77">
          <mxGeometry y="26" width="300" height="26" as="geometry" />
        </mxCell>
        <mxCell id="TKj22qkRIN0xCaGGHZL6-79" value="" style="line;strokeWidth=1;fillColor=none;align=left;verticalAlign=middle;spacingTop=-1;spacingLeft=3;spacingRight=3;rotatable=0;labelPosition=right;points=[];portConstraint=eastwest;strokeColor=inherit;" vertex="1" parent="TKj22qkRIN0xCaGGHZL6-77">
          <mxGeometry y="52" width="300" height="8" as="geometry" />
        </mxCell>
        <mxCell id="TKj22qkRIN0xCaGGHZL6-80" value="NewFileWritePage(List&amp;lt;string&amp;gt; employees):void" style="text;strokeColor=none;fillColor=none;align=left;verticalAlign=top;spacingLeft=4;spacingRight=4;overflow=hidden;rotatable=0;points=[[0,0.5],[1,0.5]];portConstraint=eastwest;whiteSpace=wrap;html=1;" vertex="1" parent="TKj22qkRIN0xCaGGHZL6-77">
          <mxGeometry y="60" width="300" height="26" as="geometry" />
        </mxCell>
        <mxCell id="TKj22qkRIN0xCaGGHZL6-81" value="TxtExport(object sender, RoutedEventArgs e):void" style="text;strokeColor=none;fillColor=none;align=left;verticalAlign=top;spacingLeft=4;spacingRight=4;overflow=hidden;rotatable=0;points=[[0,0.5],[1,0.5]];portConstraint=eastwest;whiteSpace=wrap;html=1;" vertex="1" parent="TKj22qkRIN0xCaGGHZL6-77">
          <mxGeometry y="86" width="300" height="26" as="geometry" />
        </mxCell>
        <mxCell id="TKj22qkRIN0xCaGGHZL6-87" value="JsonExport(object sender, RoutedEventArgs e):void" style="text;strokeColor=none;fillColor=none;align=left;verticalAlign=top;spacingLeft=4;spacingRight=4;overflow=hidden;rotatable=0;points=[[0,0.5],[1,0.5]];portConstraint=eastwest;whiteSpace=wrap;html=1;" vertex="1" parent="TKj22qkRIN0xCaGGHZL6-77">
          <mxGeometry y="112" width="300" height="26" as="geometry" />
        </mxCell>
        <mxCell id="TKj22qkRIN0xCaGGHZL6-88" value="ExitPoker(object sender, RoutedEventArgs e):void" style="text;strokeColor=none;fillColor=none;align=left;verticalAlign=top;spacingLeft=4;spacingRight=4;overflow=hidden;rotatable=0;points=[[0,0.5],[1,0.5]];portConstraint=eastwest;whiteSpace=wrap;html=1;" vertex="1" parent="TKj22qkRIN0xCaGGHZL6-77">
          <mxGeometry y="138" width="300" height="26" as="geometry" />
        </mxCell>
        <mxCell id="TKj22qkRIN0xCaGGHZL6-89" value="" style="endArrow=none;html=1;edgeStyle=orthogonalEdgeStyle;rounded=0;" edge="1" parent="WIyWlLk6GJQsqaUBKTNV-1" source="TKj22qkRIN0xCaGGHZL6-77" target="TKj22qkRIN0xCaGGHZL6-92">
          <mxGeometry relative="1" as="geometry">
            <mxPoint x="1060" y="1540" as="sourcePoint" />
            <mxPoint x="1100" y="980" as="targetPoint" />
          </mxGeometry>
        </mxCell>
        <mxCell id="TKj22qkRIN0xCaGGHZL6-90" value="parent" style="edgeLabel;resizable=0;html=1;align=left;verticalAlign=bottom;" connectable="0" vertex="1" parent="TKj22qkRIN0xCaGGHZL6-89">
          <mxGeometry x="-1" relative="1" as="geometry" />
        </mxCell>
        <mxCell id="TKj22qkRIN0xCaGGHZL6-91" value="child" style="edgeLabel;resizable=0;html=1;align=right;verticalAlign=bottom;" connectable="0" vertex="1" parent="TKj22qkRIN0xCaGGHZL6-89">
          <mxGeometry x="1" relative="1" as="geometry">
            <mxPoint x="-10" y="26" as="offset" />
          </mxGeometry>
        </mxCell>
        <mxCell id="TKj22qkRIN0xCaGGHZL6-92" value="JsonOutput" style="swimlane;fontStyle=0;childLayout=stackLayout;horizontal=1;startSize=26;fillColor=none;horizontalStack=0;resizeParent=1;resizeParentMax=0;resizeLast=0;collapsible=1;marginBottom=0;whiteSpace=wrap;html=1;" vertex="1" parent="WIyWlLk6GJQsqaUBKTNV-1">
          <mxGeometry x="1040" y="840" width="140" height="182" as="geometry" />
        </mxCell>
        <mxCell id="TKj22qkRIN0xCaGGHZL6-93" value="ProjectName:string" style="text;strokeColor=none;fillColor=none;align=left;verticalAlign=top;spacingLeft=4;spacingRight=4;overflow=hidden;rotatable=0;points=[[0,0.5],[1,0.5]];portConstraint=eastwest;whiteSpace=wrap;html=1;" vertex="1" parent="TKj22qkRIN0xCaGGHZL6-92">
          <mxGeometry y="26" width="140" height="26" as="geometry" />
        </mxCell>
        <mxCell id="TKj22qkRIN0xCaGGHZL6-94" value="ScrumMasterName:string" style="text;strokeColor=none;fillColor=none;align=left;verticalAlign=top;spacingLeft=4;spacingRight=4;overflow=hidden;rotatable=0;points=[[0,0.5],[1,0.5]];portConstraint=eastwest;whiteSpace=wrap;html=1;" vertex="1" parent="TKj22qkRIN0xCaGGHZL6-92">
          <mxGeometry y="52" width="140" height="26" as="geometry" />
        </mxCell>
        <mxCell id="TKj22qkRIN0xCaGGHZL6-95" value="CurrentDate:string" style="text;strokeColor=none;fillColor=none;align=left;verticalAlign=top;spacingLeft=4;spacingRight=4;overflow=hidden;rotatable=0;points=[[0,0.5],[1,0.5]];portConstraint=eastwest;whiteSpace=wrap;html=1;" vertex="1" parent="TKj22qkRIN0xCaGGHZL6-92">
          <mxGeometry y="78" width="140" height="26" as="geometry" />
        </mxCell>
        <mxCell id="TKj22qkRIN0xCaGGHZL6-96" value="TaskCount:int" style="text;strokeColor=none;fillColor=none;align=left;verticalAlign=top;spacingLeft=4;spacingRight=4;overflow=hidden;rotatable=0;points=[[0,0.5],[1,0.5]];portConstraint=eastwest;whiteSpace=wrap;html=1;" vertex="1" parent="TKj22qkRIN0xCaGGHZL6-92">
          <mxGeometry y="104" width="140" height="26" as="geometry" />
        </mxCell>
        <mxCell id="TKj22qkRIN0xCaGGHZL6-97" value="Tasks:List&amp;lt;Tasks&amp;gt;" style="text;strokeColor=none;fillColor=none;align=left;verticalAlign=top;spacingLeft=4;spacingRight=4;overflow=hidden;rotatable=0;points=[[0,0.5],[1,0.5]];portConstraint=eastwest;whiteSpace=wrap;html=1;" vertex="1" parent="TKj22qkRIN0xCaGGHZL6-92">
          <mxGeometry y="130" width="140" height="26" as="geometry" />
        </mxCell>
        <mxCell id="TKj22qkRIN0xCaGGHZL6-98" value="Employees:List&amp;lt;string&amp;gt;" style="text;strokeColor=none;fillColor=none;align=left;verticalAlign=top;spacingLeft=4;spacingRight=4;overflow=hidden;rotatable=0;points=[[0,0.5],[1,0.5]];portConstraint=eastwest;whiteSpace=wrap;html=1;" vertex="1" parent="TKj22qkRIN0xCaGGHZL6-92">
          <mxGeometry y="156" width="140" height="26" as="geometry" />
        </mxCell>
        <mxCell id="TKj22qkRIN0xCaGGHZL6-99" value="Use" style="endArrow=open;endSize=12;dashed=1;html=1;rounded=0;exitX=0.5;exitY=0;exitDx=0;exitDy=0;" edge="1" parent="WIyWlLk6GJQsqaUBKTNV-1" source="TKj22qkRIN0xCaGGHZL6-92" target="TKj22qkRIN0xCaGGHZL6-25">
          <mxGeometry width="160" relative="1" as="geometry">
            <mxPoint x="395" y="567" as="sourcePoint" />
            <mxPoint x="690" y="410" as="targetPoint" />
            <Array as="points">
              <mxPoint x="1110" y="310" />
            </Array>
          </mxGeometry>
        </mxCell>
      </root>
    </mxGraphModel>
  </diagram>
</mxfile>
